<svg xmlns="http://www.w3.org/2000/svg" viewBox="0 0 160 160"><rect fill="#DDD" width="100%" height="100%"/><path d="M43.225 69.61h2.73v16.63h-1.59q-.37 0-.61-.12-.25-.12-.48-.41l-8.68-11.09q.06.76.06 1.41v10.21h-2.72V69.61h1.62q.2 0 .34.02t.25.07q.11.05.22.15.1.09.23.26l8.71 11.13q-.03-.41-.05-.8-.03-.39-.03-.72V69.61Zm11.2 4.65q1.31 0 2.39.42 1.07.43 1.84 1.21.76.78 1.18 1.91.41 1.13.41 2.52 0 1.4-.41 2.53-.42 1.12-1.18 1.92-.77.79-1.84 1.22-1.08.42-2.39.42-1.32 0-2.4-.42-1.08-.43-1.85-1.22-.76-.8-1.18-1.92-.42-1.13-.42-2.53 0-1.39.42-2.52.42-1.13 1.18-1.91.77-.78 1.85-1.21 1.08-.42 2.4-.42Zm0 9.97q1.48 0 2.18-.99.71-.99.71-2.9t-.71-2.91q-.7-1-2.18-1-1.49 0-2.21 1.01-.72 1-.72 2.9t.72 2.89q.72 1 2.21 1Zm17.14-14.62v16.63h-3.11V69.61h3.11Zm6.1 16.63h-2.84v-11.8h1.74q.55 0 .73.52l.18.87q.31-.34.65-.63t.72-.49q.39-.21.83-.33.44-.12.97-.12 1.12 0 1.84.6t1.07 1.6q.28-.58.69-1 .42-.42.91-.69.5-.26 1.05-.39.56-.12 1.12-.12.98 0 1.74.3t1.28.87q.52.58.79 1.4.27.83.27 1.9v7.51h-2.84v-7.51q0-1.13-.5-1.7-.49-.57-1.45-.57-.44 0-.81.15-.37.15-.65.44-.29.28-.45.7-.16.43-.16.98v7.51h-2.85v-7.51q0-1.18-.48-1.72-.47-.55-1.39-.55-.63 0-1.16.31-.54.3-1 .83v8.64Zm22.66-3.05V81.2q-1.23.06-2.07.22-.84.15-1.35.39-.5.24-.72.57-.22.32-.22.7 0 .74.44 1.07.45.32 1.16.32.87 0 1.51-.32.64-.31 1.25-.96Zm-6-6.2-.51-.9q2.04-1.87 4.9-1.87 1.03 0 1.85.34.82.34 1.38.94.56.61.86 1.45.29.84.29 1.84v7.45h-1.29q-.4 0-.62-.12-.22-.12-.34-.49l-.26-.85q-.44.4-.87.71-.43.3-.89.51-.46.21-.98.31-.52.11-1.15.11-.75 0-1.38-.2-.64-.2-1.1-.6-.46-.4-.71-1-.25-.6-.25-1.39 0-.45.15-.89.15-.45.49-.85.33-.4.88-.76.54-.36 1.32-.62.79-.26 1.84-.43 1.04-.17 2.39-.2v-.69q0-1.19-.51-1.76-.5-.57-1.46-.57-.69 0-1.14.17-.46.16-.8.36l-.63.36q-.28.16-.62.16-.3 0-.51-.15-.21-.16-.33-.37Zm15.75 3.06q.53 0 .92-.14t.65-.4q.26-.25.39-.61.13-.35.13-.78 0-.87-.52-1.38-.52-.52-1.57-.52-1.04 0-1.57.52-.52.51-.52 1.38 0 .41.13.77.13.36.39.62t.66.4q.39.14.91.14Zm3.21 6.72q0-.35-.21-.56-.2-.22-.56-.34-.36-.12-.83-.18-.48-.06-1.02-.09-.53-.03-1.1-.05-.57-.02-1.11-.09-.47.26-.76.62-.3.36-.3.83 0 .31.16.58.15.27.49.46.34.2.88.31.54.11 1.32.11.8 0 1.37-.12.58-.12.95-.34.38-.21.55-.5.17-.3.17-.64Zm-.56-11.93h3.39v1.06q0 .51-.61.62l-1.06.2q.24.61.24 1.33 0 .88-.35 1.58-.35.71-.97 1.2-.62.5-1.47.77-.84.27-1.82.27-.34 0-.67-.03-.32-.04-.63-.1-.55.34-.55.75 0 .36.33.52.33.17.87.24.54.07 1.23.09.69.01 1.41.07.73.06 1.42.2.69.15 1.23.46.54.31.86.84.33.54.33 1.38 0 .78-.38 1.51-.39.74-1.12 1.32-.73.57-1.79.92-1.07.35-2.42.35-1.34 0-2.33-.26t-1.64-.69q-.66-.43-.98-.99-.32-.57-.32-1.18 0-.82.5-1.38.5-.56 1.37-.89-.47-.24-.74-.65-.28-.4-.28-1.05 0-.27.1-.55t.29-.56q.19-.27.47-.52.29-.25.68-.44-.9-.49-1.41-1.29-.51-.81-.51-1.89 0-.87.35-1.58.35-.71.98-1.21t1.48-.76q.86-.27 1.87-.27.76 0 1.43.16.66.15 1.22.45Zm7.43 4.14h5.35q0-.55-.15-1.04-.16-.49-.47-.85-.31-.37-.78-.58-.48-.22-1.11-.22-1.23 0-1.94.7-.71.71-.9 1.99Zm7.24 1.72h-7.3q.07.91.32 1.57t.67 1.09q.41.43.98.64.57.22 1.26.22.69 0 1.19-.17.5-.16.87-.35.38-.2.66-.36.28-.16.55-.16.35 0 .52.27l.82 1.03q-.47.55-1.06.93-.58.37-1.22.59-.64.23-1.3.32t-1.28.09q-1.23 0-2.29-.41-1.06-.4-1.84-1.2-.78-.8-1.23-1.98-.45-1.18-.45-2.73 0-1.21.39-2.27.39-1.07 1.12-1.86.73-.78 1.78-1.24 1.06-.46 2.38-.46 1.11 0 2.06.35.94.36 1.62 1.04.68.69 1.06 1.68.39 1 .39 2.27 0 .65-.14.87-.14.23-.53.23Z" fill="#999"/></svg>